<svg xmlns="http://www.w3.org/2000/svg" xmlns:xlink="http://www.w3.org/1999/xlink" width="297.926" height="87.007" viewBox="0 0 297.926 87.007">
  <defs>
    <linearGradient id="linear-gradient" y1="0.5" x2="1" y2="0.5" gradientUnits="objectBoundingBox">
      <stop offset="0" stop-color="#271a37"/>
      <stop offset="0.54" stop-color="#3a2764"/>
      <stop offset="0.993" stop-color="#4c348d"/>
    </linearGradient>
    <linearGradient id="linear-gradient-3" x1="0.5" y1="0.146" x2="0.5" y2="0.716" gradientUnits="objectBoundingBox">
      <stop offset="0" stop-color="#eb652e"/>
      <stop offset="0.993" stop-color="#f29030"/>
    </linearGradient>
    <linearGradient id="linear-gradient-4" x1="0.5" y1="-0.159" x2="0.5" y2="0.615" xlink:href="#linear-gradient-3"/>
    <linearGradient id="linear-gradient-6" x1="0.5" y1="-0.757" x2="0.5" y2="0.853" xlink:href="#linear-gradient"/>
    <linearGradient id="linear-gradient-7" x1="0.5" y1="-0.733" x2="0.5" y2="0.847" xlink:href="#linear-gradient"/>
    <linearGradient id="linear-gradient-8" x1="0.5" y1="-0.738" x2="0.5" y2="0.852" xlink:href="#linear-gradient"/>
  </defs>
  <g id="Grupo_63763" data-name="Grupo 63763" transform="translate(-103 -187.642)">
    <g id="mvshub_color" data-name="mvshub® color" transform="translate(251.963 231.146)">
      <g id="Grupo_52864" data-name="Grupo 52864" transform="translate(-148.963 -43.504)">
        <g id="Grupo_52862" data-name="Grupo 52862">
          <g id="Grupo_52859" data-name="Grupo 52859" transform="translate(46.889 70.021)">
            <g id="Grupo_52858" data-name="Grupo 52858">
              <path id="Trazado_111565" data-name="Trazado 111565" d="M110.2,182.8V172.95h1.924l.291,1.427a4.187,4.187,0,0,1,3.181-1.427,2.587,2.587,0,0,1,2.543,1.352,4.705,4.705,0,0,1,3.163-1.352q3.4,0,3.4,3.745V182.8h-2.487v-6.2q0-1.643-1.483-1.643a3.052,3.052,0,0,0-2.13,1V182.8h-2.487V176.63q0-1.672-1.37-1.671a2.854,2.854,0,0,0-2.055,1V182.8Z" transform="translate(-110.202 -169.384)" fill="#f29030"/>
              <path id="Trazado_111566" data-name="Trazado 111566" d="M146.883,177.84q0-4.954,4.88-4.955t4.88,4.955q0,4.946-4.88,4.946Q146.9,182.785,146.883,177.84Zm4.88,3.05q2.393,0,2.393-3.088,0-3.012-2.393-3.012T149.37,177.8Q149.37,180.89,151.763,180.89Z" transform="translate(-131.276 -169.347)" fill="#f29030"/>
              <path id="Trazado_111567" data-name="Trazado 111567" d="M169.669,172.95H172.3l2.393,6.888,2.487-6.888H179.8L175.8,182.8h-2.364Z" transform="translate(-144.367 -169.384)" fill="#f29030"/>
              <path id="Trazado_111568" data-name="Trazado 111568" d="M196.925,164.57v1.97h-2.486v-1.97Zm0,3.566v9.854h-2.486v-9.854Z" transform="translate(-158.598 -164.57)" fill="#f29030"/>
              <path id="Trazado_111569" data-name="Trazado 111569" d="M207.515,172.95q4.485,0,4.485,4.58a8.828,8.828,0,0,1-.084,1.22h-6.541q0,2.083,3.059,2.084a16.068,16.068,0,0,0,2.984-.282v1.971a15.288,15.288,0,0,1-3.172.282q-5.359,0-5.359-5.039Q202.888,172.951,207.515,172.95Zm-2.14,4.073h4.2v-.075a1.816,1.816,0,0,0-2.064-2.045Q205.544,174.9,205.375,177.023Z" transform="translate(-163.452 -169.384)" fill="#f29030"/>
              <path id="Trazado_111570" data-name="Trazado 111570" d="M226.253,182.209v-2.064a10.158,10.158,0,0,0,3.791.657q1.605,0,1.6-1.033,0-.985-1.079-.985h-1.783q-3,0-3-2.956,0-3.1,4.382-3.1a10.709,10.709,0,0,1,3.5.563v2.065a9.508,9.508,0,0,0-3.566-.657q-2.018,0-2.018,1.032,0,.985,1.173.985h1.6q3.284,0,3.284,2.956,0,3.1-4.185,3.1A11.361,11.361,0,0,1,226.253,182.209Z" transform="translate(-176.606 -169.259)" fill="#f29030"/>
              <path id="Trazado_111571" data-name="Trazado 111571" d="M265.672,172.95H268.3l2.393,6.888,2.487-6.888h2.627L271.8,182.8h-2.364Z" transform="translate(-199.523 -169.384)" fill="#f29030"/>
              <path id="Trazado_111572" data-name="Trazado 111572" d="M292.93,164.57v1.97h-2.487v-1.97Zm0,3.566v9.854h-2.487v-9.854Z" transform="translate(-213.754 -164.57)" fill="#f29030"/>
              <path id="Trazado_111573" data-name="Trazado 111573" d="M308.089,177.4a17.426,17.426,0,0,1-4.42.591q-4.777,0-4.777-5.124,0-4.73,4.673-4.73a4.934,4.934,0,0,1,2.036.47V164.57h2.487Zm-2.487-6.691a3.448,3.448,0,0,0-1.933-.507q-2.318,0-2.318,2.6,0,3.088,2.412,3.087a6.091,6.091,0,0,0,1.839-.272Z" transform="translate(-218.608 -164.57)" fill="#f29030"/>
              <path id="Trazado_111574" data-name="Trazado 111574" d="M327.738,172.95q4.485,0,4.485,4.58a8.83,8.83,0,0,1-.084,1.22H325.6q0,2.083,3.059,2.084a16.069,16.069,0,0,0,2.984-.282v1.971a15.29,15.29,0,0,1-3.172.282q-5.358,0-5.358-5.039Q323.111,172.951,327.738,172.95Zm-2.14,4.073h4.2v-.075a1.816,1.816,0,0,0-2.064-2.045Q325.767,174.9,325.6,177.023Z" transform="translate(-232.523 -169.384)" fill="#f29030"/>
              <path id="Trazado_111575" data-name="Trazado 111575" d="M346.007,177.84q0-4.954,4.879-4.955t4.881,4.955q0,4.946-4.881,4.946Q346.026,182.785,346.007,177.84Zm4.879,3.05q2.395,0,2.393-3.088,0-3.012-2.393-3.012t-2.392,3.012Q348.494,180.89,350.886,180.89Z" transform="translate(-245.677 -169.347)" fill="#f29030"/>
              <path id="Trazado_111576" data-name="Trazado 111576" d="M390.767,182.209v-2.064a10.157,10.157,0,0,0,3.791.657q1.6,0,1.6-1.033,0-.985-1.079-.985H393.3q-3,0-3-2.956,0-3.1,4.382-3.1a10.711,10.711,0,0,1,3.5.563v2.065a9.51,9.51,0,0,0-3.566-.657q-2.017,0-2.017,1.032,0,.985,1.172.985h1.6q3.284,0,3.284,2.956,0,3.1-4.185,3.1A11.361,11.361,0,0,1,390.767,182.209Z" transform="translate(-271.123 -169.259)" fill="#f29030"/>
              <path id="Trazado_111577" data-name="Trazado 111577" d="M411.869,169.2h1.84l.375,1.6h2.478v1.971h-2.205V177.3q0,1.379,1.192,1.379h1.013v1.971h-2.215q-2.478,0-2.478-2.656Z" transform="translate(-283.516 -167.231)" fill="#f29030"/>
              <path id="Trazado_111578" data-name="Trazado 111578" d="M425.061,182.8V172.95h1.924l.31,1.258a3.907,3.907,0,0,1,2.741-1.258v2.008a3.358,3.358,0,0,0-2.487,1.154V182.8Z" transform="translate(-291.095 -169.384)" fill="#f29030"/>
              <path id="Trazado_111579" data-name="Trazado 111579" d="M441.777,172.95q4.486,0,4.486,4.58a8.831,8.831,0,0,1-.085,1.22h-6.541q0,2.083,3.059,2.084a16.065,16.065,0,0,0,2.984-.282v1.971a15.293,15.293,0,0,1-3.172.282q-5.358,0-5.358-5.039Q437.151,172.951,441.777,172.95Zm-2.139,4.073h4.2v-.075a1.816,1.816,0,0,0-2.065-2.045Q439.807,174.9,439.638,177.023Z" transform="translate(-298.041 -169.384)" fill="#f29030"/>
              <path id="Trazado_111580" data-name="Trazado 111580" d="M460.047,179.736q0-2.938,4.279-2.937a10.951,10.951,0,0,1,2.008.187v-.741q0-1.324-1.905-1.323a15.579,15.579,0,0,0-3.585.469V173.42a15.581,15.581,0,0,1,3.585-.47q4.392,0,4.392,3.247V182.8h-1.445l-.882-.882a4.9,4.9,0,0,1-2.834.882Q460.046,182.8,460.047,179.736Zm4.279-1.248q-1.793,0-1.793,1.22,0,1.314,1.5,1.313a3.836,3.836,0,0,0,2.3-.769v-1.577A10.279,10.279,0,0,0,464.326,178.487Z" transform="translate(-311.195 -169.384)" fill="#f29030"/>
              <path id="Trazado_111581" data-name="Trazado 111581" d="M484.375,182.8V172.95H486.3l.291,1.427a4.188,4.188,0,0,1,3.182-1.427,2.586,2.586,0,0,1,2.543,1.352,4.706,4.706,0,0,1,3.163-1.352q3.4,0,3.4,3.745V182.8h-2.487v-6.2q0-1.643-1.483-1.643a3.05,3.05,0,0,0-2.13,1V182.8h-2.487V176.63q0-1.672-1.37-1.671a2.854,2.854,0,0,0-2.055,1V182.8Z" transform="translate(-325.172 -169.384)" fill="#f29030"/>
              <path id="Trazado_111582" data-name="Trazado 111582" d="M524.645,164.57v1.97h-2.487v-1.97Zm0,3.566v9.854h-2.487v-9.854Z" transform="translate(-346.879 -164.57)" fill="#f29030"/>
              <path id="Trazado_111583" data-name="Trazado 111583" d="M531.71,182.8V172.95h1.924l.31,1.445a4.411,4.411,0,0,1,3.229-1.445q3.5,0,3.5,3.642V182.8h-2.487v-6.212a1.439,1.439,0,0,0-1.623-1.633,3.665,3.665,0,0,0-2.365.967V182.8Z" transform="translate(-352.367 -169.384)" fill="#f29030"/>
              <path id="Trazado_111584" data-name="Trazado 111584" d="M564.642,182.054q0,4.316-5.19,4.317a10.182,10.182,0,0,1-3.228-.47V183.93a10.418,10.418,0,0,0,3.246.469q2.684,0,2.685-2.252a6.045,6.045,0,0,1-2.384.47q-4.392,0-4.391-4.8,0-4.87,5.114-4.87a26.012,26.012,0,0,1,4.148.4Zm-2.486-6.869a5.217,5.217,0,0,0-1.736-.226q-2.581,0-2.581,2.843,0,2.751,2.224,2.75a4.671,4.671,0,0,0,2.093-.506Z" transform="translate(-365.966 -169.384)" fill="#f29030"/>
            </g>
            <rect id="Rectángulo_29544" data-name="Rectángulo 29544" width="0.767" height="12.067" transform="translate(61.494 1.579)" fill="url(#linear-gradient)"/>
            <rect id="Rectángulo_29545" data-name="Rectángulo 29545" width="0.767" height="12.067" transform="translate(114.175 1.579)" fill="url(#linear-gradient)"/>
          </g>
          <g id="Grupo_52861" data-name="Grupo 52861">
            <g id="Grupo_52860" data-name="Grupo 52860" transform="translate(158.991)">
              <path id="Trazado_111585" data-name="Trazado 111585" d="M373.675,60.931V0h11.291V21.9a17.586,17.586,0,0,1,13.507-5.71q15.892,0,15.893,16.532V60.931H403.075V32.724q0-7.414-7.371-7.414-5.5,0-10.738,4.389V60.931Z" transform="translate(-373.675)" fill="url(#linear-gradient-3)"/>
              <path id="Trazado_111586" data-name="Trazado 111586" d="M522.309,37.713V82.6h-8.82l-1.363-5.71a27.037,27.037,0,0,1-16.362,5.71q-13.721,0-13.72-16.234V37.713h11.291V66.066q0,7.414,6.477,7.414,5.5,0,11.206-4.389V37.713Z" transform="translate(-435.935 -21.667)" fill="url(#linear-gradient-4)"/>
              <path id="Trazado_111587" data-name="Trazado 111587" d="M589.409,0H600.7V19.6a19.794,19.794,0,0,1,11.291-3.409q19.088,0,19.089,21.475,0,23.265-21.858,23.265A116.786,116.786,0,0,1,589.409,59.1ZM600.7,50.577a29.631,29.631,0,0,0,8.991,1.236q10.226,0,10.226-14.445,0-11.8-8.82-11.8a23.271,23.271,0,0,0-10.4,2.3Z" transform="translate(-497.619)" fill="url(#linear-gradient-3)"/>
            </g>
            <path id="Trazado_111588" data-name="Trazado 111588" d="M184.376,68.988,173.51,37.713H161.58l17.086,44.74H189.4L207.6,37.713H195.667Z" transform="translate(-92.831 -21.667)" fill="url(#linear-gradient-6)"/>
            <path id="Trazado_111589" data-name="Trazado 111589" d="M295.041,54.82H287.8a6.965,6.965,0,0,1-3.412-.718,3.939,3.939,0,0,1-1.914-3.756,3.893,3.893,0,0,1,2.747-3.728,17,17,0,0,1,6.414-.959,43.372,43.372,0,0,1,15.693,2.787q.25.1.5.2V39.268a48.669,48.669,0,0,0-15.893-2.557,35.715,35.715,0,0,0-9.974,1.213,16.416,16.416,0,0,0-5.169,2.46,11.09,11.09,0,0,0-3.567,4.354,12.562,12.562,0,0,0-.892,2.807,16.707,16.707,0,0,0-.3,3.227,20.832,20.832,0,0,0,.348,3.948,12.1,12.1,0,0,0,2.084,5,10.079,10.079,0,0,0,4.464,3.358,15.1,15.1,0,0,0,3.382.886,22.759,22.759,0,0,0,3.357.233h8.1a6.6,6.6,0,0,1,2.69.482,3.429,3.429,0,0,1,1.658,1.491,5.109,5.109,0,0,1,.553,2.5,4.033,4.033,0,0,1-.988,2.816,5.561,5.561,0,0,1-2.962,1.545,15,15,0,0,1-3.337.326q-2.714,0-5.251-.231a47.214,47.214,0,0,1-6.047-.934,38.722,38.722,0,0,1-5.916-1.818v9.374A51.571,51.571,0,0,0,290.951,82.3q19,0,19-14.061a20.056,20.056,0,0,0-.235-3.16,13.476,13.476,0,0,0-1.112-3.695,10.21,10.21,0,0,0-4.568-4.727A19.2,19.2,0,0,0,295.041,54.82Z" transform="translate(-156.288 -21.091)" fill="url(#linear-gradient-7)"/>
            <path id="Trazado_111590" data-name="Trazado 111590" d="M34.192,43.692l.149-.167a21.459,21.459,0,0,1,6.428-5.01,17.63,17.63,0,0,1,7.677-1.8,18.949,18.949,0,0,1,14.016,6.413c3.749,4.308,5.8,8.439,5.8,14.351V82.022H57.105V57.474c0-5.31-4.017-10.019-8.659-10.019-4.821,0-8.749,4.609-8.749,10.019V82.022H28.567V57.474c0-5.41-3.928-10.019-8.749-10.019-4.642,0-8.659,4.709-8.659,10.019V82.022H0V57.474c0-5.911,2.053-10.042,5.8-14.351a18.948,18.948,0,0,1,14.016-6.413,17.63,17.63,0,0,1,7.677,1.8,21.464,21.464,0,0,1,6.428,5.01l.149.167.058.063Z" transform="translate(0 -21.091)" fill="url(#linear-gradient-8)"/>
          </g>
        </g>
        <g id="Grupo_52863" data-name="Grupo 52863" transform="translate(292.652 17.555)">
          <path id="Trazado_111591" data-name="Trazado 111591" d="M687.817,43.9a2.526,2.526,0,0,1,.209-1.024,2.681,2.681,0,0,1,1.4-1.4,2.616,2.616,0,0,1,2.049,0,2.681,2.681,0,0,1,1.4,1.4,2.616,2.616,0,0,1,0,2.049,2.681,2.681,0,0,1-1.4,1.4,2.616,2.616,0,0,1-2.049,0,2.681,2.681,0,0,1-1.4-1.4A2.528,2.528,0,0,1,687.817,43.9Zm.383,0a2.194,2.194,0,0,0,.177.879,2.252,2.252,0,0,0,1.2,1.2,2.266,2.266,0,0,0,1.758,0,2.252,2.252,0,0,0,1.2-1.2,2.266,2.266,0,0,0,0-1.758,2.256,2.256,0,0,0-1.2-1.2,2.271,2.271,0,0,0-1.758,0,2.255,2.255,0,0,0-1.2,1.2A2.194,2.194,0,0,0,688.2,43.9Zm1.681,1.51H689.5V42.365h1.17a1.033,1.033,0,0,1,.738.216.845.845,0,0,1,.22.628.971.971,0,0,1-.06.361.726.726,0,0,1-.167.252.826.826,0,0,1-.245.163,1.328,1.328,0,0,1-.294.089l.908,1.333h-.432l-.908-1.333h-.545Zm0-1.673h.489c.1,0,.208,0,.311-.011a.861.861,0,0,0,.28-.064.5.5,0,0,0,.2-.156.479.479,0,0,0,.078-.294.449.449,0,0,0-.06-.245.456.456,0,0,0-.156-.152.7.7,0,0,0-.22-.081,1.237,1.237,0,0,0-.245-.025h-.68Z" transform="translate(-687.817 -41.26)" fill="#f29030"/>
        </g>
      </g>
    </g>
  </g>
</svg>
